<svg width="6" height="55" viewBox="0 0 6 55" fill="none" xmlns="http://www.w3.org/2000/svg">
<path d="M0.333333 51.5C0.333333 52.9728 1.52724 54.1667 3 54.1667C4.47276 54.1667 5.66667 52.9728 5.66667 51.5C5.66667 50.0272 4.47276 48.8333 3 48.8333C1.52724 48.8333 0.333333 50.0272 0.333333 51.5ZM2.5 2.14583C2.5 2.42198 2.72386 2.64583 3 2.64583C3.27614 2.64583 3.5 2.42198 3.5 2.14583H2.5ZM3.5 6.4375C3.5 6.16136 3.27614 5.9375 3 5.9375C2.72386 5.9375 2.5 6.16136 2.5 6.4375H3.5ZM2.5 10.7292C2.5 11.0053 2.72386 11.2292 3 11.2292C3.27614 11.2292 3.5 11.0053 3.5 10.7292H2.5ZM3.5 15.0208C3.5 14.7447 3.27614 14.5208 3 14.5208C2.72386 14.5208 2.5 14.7447 2.5 15.0208H3.5ZM2.5 19.3125C2.5 19.5886 2.72386 19.8125 3 19.8125C3.27614 19.8125 3.5 19.5886 3.5 19.3125H2.5ZM3.5 23.6042C3.5 23.328 3.27614 23.1042 3 23.1042C2.72386 23.1042 2.5 23.328 2.5 23.6042H3.5ZM2.5 27.8958C2.5 28.172 2.72386 28.3958 3 28.3958C3.27614 28.3958 3.5 28.172 3.5 27.8958H2.5ZM3.5 32.1875C3.5 31.9114 3.27614 31.6875 3 31.6875C2.72386 31.6875 2.5 31.9114 2.5 32.1875H3.5ZM2.5 36.4792C2.5 36.7553 2.72386 36.9792 3 36.9792C3.27614 36.9792 3.5 36.7553 3.5 36.4792H2.5ZM3.5 40.7708C3.5 40.4947 3.27614 40.2708 3 40.2708C2.72386 40.2708 2.5 40.4947 2.5 40.7708H3.5ZM2.5 45.0625C2.5 45.3386 2.72386 45.5625 3 45.5625C3.27614 45.5625 3.5 45.3386 3.5 45.0625H2.5ZM3.5 49.3542C3.5 49.078 3.27614 48.8542 3 48.8542C2.72386 48.8542 2.5 49.078 2.5 49.3542H3.5ZM2.5 0V2.14583H3.5V0H2.5ZM2.5 6.4375V10.7292H3.5V6.4375H2.5ZM2.5 15.0208V19.3125H3.5V15.0208H2.5ZM2.5 23.6042V27.8958H3.5V23.6042H2.5ZM2.5 32.1875V36.4792H3.5V32.1875H2.5ZM2.5 40.7708V45.0625H3.5V40.7708H2.5ZM2.5 49.3542V51.5H3.5V49.3542H2.5Z" fill="#2673BA"/>
</svg>
